<svg width="380" height="389" viewBox="0 0 380 389" fill="none" xmlns="http://www.w3.org/2000/svg">
<g filter="url(#filter0_d_844_72)">
<path d="M186.961 51C172.405 51 158.915 56.3367 148.825 66.0563C138.737 75.7758 132.483 89.7826 132.483 105.067C132.483 121.284 139.844 135.616 151.097 145.446L159.268 152.291L147.464 154.344C116.153 159.721 101.203 170.916 92.5326 188.222C84.4614 204.333 83.1936 226.554 83 252.898H292.285C292.249 226.443 292.013 203.643 284.568 187.194C276.576 169.54 261.93 158.279 228.274 153.318L216.469 151.607L224.187 144.42C234.738 134.644 241.438 120.712 241.438 105.067C241.438 89.7826 235.182 75.7758 225.094 66.0563C215.005 56.3367 201.515 51.0006 186.96 51.0006L186.961 51Z" fill="black"/>
<path d="M119.731 291.606C104.791 314.343 93.029 338.898 88.1642 361.248L88.1634 361.247C44.8208 328.137 33.6226 290.983 41.2289 262.811C48.1157 257.816 55.5278 252.967 63.2698 248.398C63.2191 254.403 63.2191 260.682 63.2191 267.245C63.2191 267.245 89.0982 276.776 125.658 282.92C123.636 285.772 121.659 288.671 119.731 291.606Z" fill="black"/>
<path d="M146.779 285.882C142.8 291.008 138.959 296.372 135.343 301.876C130.48 309.286 126.013 316.948 121.962 324.83C124.458 339.268 132.95 353.593 148.388 364.774C149.189 365.356 150.002 365.94 150.842 366.502L150.844 366.5C163.45 374.946 180.374 381.32 201.916 384.279C195.941 364.731 194.182 340.794 195.577 316.816C196.144 307.056 197.23 297.348 198.876 288H183.448C170.804 288 158.455 287.187 146.779 285.882Z" fill="black"/>
<path d="M218.16 287.438C216.208 297.135 214.857 307.493 214.253 317.881C213.953 323.112 213.838 328.351 213.906 333.59C217.375 338.932 222.061 343.692 227.908 347.44L227.91 347.441C228.405 347.758 228.923 348.066 229.433 348.368C245.094 357.641 268.505 359.847 298.242 348.228C285.886 336.206 274.873 319.618 265.951 301.845C262.854 295.678 260.024 289.391 257.553 283.092C245.288 284.998 231.983 286.575 218.16 287.438Z" fill="black"/>
<path d="M276.456 279.771C278.321 284.365 280.397 288.96 282.655 293.458C284.96 298.038 287.451 302.522 290.121 306.899L290.122 306.897C306.316 316.241 331.499 313.741 354.961 285.554C343.262 282.274 331.121 276.482 319.492 269.328C311.243 271.767 295.927 275.961 276.456 279.771Z" fill="black"/>
<path d="M326.19 251.46C329.617 253.651 333.127 255.686 336.643 257.567C349.953 257.107 364.985 248.18 375.746 225.761C363.781 225.403 350.856 222.729 338.225 218.545C333.579 217.006 329.027 215.277 324.639 213.363C325.802 224.685 326.109 237.334 326.19 251.46Z" fill="black"/>
<path d="M103.157 148.865C89.9744 146.49 76.1426 144.852 62.2794 144.057C42.9304 142.944 59.115 142.002 41.2289 144.057L25.747 152C1.92329 177.485 -11.8787 220.16 13.747 279.771L24.247 258C40.3845 239.578 37.7982 240.61 63.8224 226.598C65.6597 189.575 73.0919 165.015 103.157 148.865Z" fill="black"/>
<path d="M344.114 200.836C339.592 199.338 335.149 197.554 330.927 195.638C326.963 189.863 323.151 182.132 319.995 172.399C328.071 173.258 336.562 172.593 344.818 170.888C353.062 169.184 361.102 166.457 368.151 162.485C369.45 176.063 368.276 186.788 365.771 194.361C364.171 199.197 362.207 202.642 360.096 205.031C354.688 203.964 349.35 202.563 344.114 200.836Z" fill="black"/>
<path d="M341.04 152.577C336.648 153.481 332.175 153.936 327.69 153.933L327.69 153.934C324.15 142.281 315.442 129.545 300.564 121.424C322.339 120.981 343.973 129.189 352.356 149.138C348.695 150.623 344.908 151.774 341.04 152.577Z" fill="black"/>
<g filter="url(#filter1_b_844_72)">
<rect width="318" height="77" transform="translate(28.747 202)" fill="black" fill-opacity="0.8"/>
<path d="M30.747 248V204.93H35.127V248H30.747ZM41.697 248V204.93H43.887V248H41.697ZM50.457 248V204.93H52.647V248H50.457ZM38.193 269.681H41.551V255.957H38.412V254.351H46.807V255.957H43.449V269.681H46.953V271.287H38.193V269.681ZM54.8427 248V204.93H59.2227V248H54.8427ZM61.4127 248V204.93H67.9827V248H61.4127ZM74.5527 248V204.93H76.7427V248H74.5527ZM65.7197 256.03H60.9747V254.351H72.6547V256.03H67.6907V271.287H65.7197V256.03ZM78.9384 248V204.93H83.3184V248H78.9384ZM85.5084 248V204.93H92.0784V248H85.5084ZM94.2684 248V204.93H96.4584V248H94.2684ZM90.9104 271.579C88.7204 271.579 86.9441 270.849 85.5814 269.389L86.6034 267.71L86.6764 267.491L86.8954 267.564C86.8954 267.613 86.9197 267.71 86.9684 267.856C86.9684 267.953 87.0171 268.075 87.1144 268.221C87.1631 268.318 87.2604 268.416 87.4064 268.513C88.4284 269.389 89.6937 269.827 91.2024 269.827C92.1757 269.827 93.0031 269.559 93.6844 269.024C94.3657 268.44 94.7064 267.759 94.7064 266.98C94.7064 266.445 94.5847 265.982 94.3414 265.593C94.1467 265.252 93.7817 264.912 93.2464 264.571C92.7111 264.23 91.8837 263.817 90.7644 263.33C89.1097 262.697 87.9174 261.967 87.1874 261.14C86.5061 260.313 86.1654 259.388 86.1654 258.366C86.1654 257.101 86.6277 256.079 87.5524 255.3C88.4771 254.521 89.7181 254.132 91.2754 254.132C92.2001 254.132 93.0761 254.327 93.9034 254.716C94.6821 255.105 95.3877 255.616 96.0204 256.249L94.7794 257.928L94.6334 257.782C94.6334 257.733 94.6091 257.66 94.5604 257.563C94.5604 257.417 94.5117 257.295 94.4144 257.198C94.3657 257.052 94.2684 256.93 94.1224 256.833C93.7331 256.444 93.2707 256.152 92.7354 255.957C92.2487 255.811 91.6647 255.738 90.9834 255.738C90.1074 255.738 89.4261 255.981 88.9394 256.468C88.4041 256.955 88.1364 257.539 88.1364 258.22C88.1364 258.755 88.2337 259.218 88.4284 259.607C88.6717 259.996 89.0854 260.361 89.6694 260.702C90.2534 261.091 91.1294 261.505 92.2974 261.943C93.9034 262.624 95.0227 263.306 95.6554 263.987C96.2394 264.717 96.5314 265.617 96.5314 266.688C96.5314 267.515 96.3367 268.294 95.9474 269.024C95.5094 269.754 94.8767 270.362 94.0494 270.849C93.1734 271.336 92.1271 271.579 90.9104 271.579ZM103.034 248V204.93H107.414V248H103.034ZM109.604 248V204.93H113.984V248H109.604ZM118.364 248V204.93H122.744V248H118.364ZM127.13 248V204.93H131.51V248H127.13ZM133.7 248V204.93H140.27V248H133.7ZM142.46 248V204.93H144.65V248H142.46ZM139.102 271.579C136.912 271.579 135.135 270.849 133.773 269.389L134.795 267.71L134.868 267.491L135.087 267.564C135.087 267.613 135.111 267.71 135.16 267.856C135.16 267.953 135.208 268.075 135.306 268.221C135.354 268.318 135.452 268.416 135.598 268.513C136.62 269.389 137.885 269.827 139.394 269.827C140.367 269.827 141.194 269.559 141.876 269.024C142.557 268.44 142.898 267.759 142.898 266.98C142.898 266.445 142.776 265.982 142.533 265.593C142.338 265.252 141.973 264.912 141.438 264.571C140.902 264.23 140.075 263.817 138.956 263.33C137.301 262.697 136.109 261.967 135.379 261.14C134.697 260.313 134.357 259.388 134.357 258.366C134.357 257.101 134.819 256.079 135.744 255.3C136.668 254.521 137.909 254.132 139.467 254.132C140.391 254.132 141.267 254.327 142.095 254.716C142.873 255.105 143.579 255.616 144.212 256.249L142.971 257.928L142.825 257.782C142.825 257.733 142.8 257.66 142.752 257.563C142.752 257.417 142.703 257.295 142.606 257.198C142.557 257.052 142.46 256.93 142.314 256.833C141.924 256.444 141.462 256.152 140.927 255.957C140.44 255.811 139.856 255.738 139.175 255.738C138.299 255.738 137.617 255.981 137.131 256.468C136.595 256.955 136.328 257.539 136.328 258.22C136.328 258.755 136.425 259.218 136.62 259.607C136.863 259.996 137.277 260.361 137.861 260.702C138.445 261.091 139.321 261.505 140.489 261.943C142.095 262.624 143.214 263.306 143.847 263.987C144.431 264.717 144.723 265.617 144.723 266.688C144.723 267.515 144.528 268.294 144.139 269.024C143.701 269.754 143.068 270.362 142.241 270.849C141.365 271.336 140.318 271.579 139.102 271.579ZM151.226 248V204.93H155.606V248H151.226ZM162.176 248V204.93H164.366V248H162.176ZM166.556 248V204.93H168.746V248H166.556ZM157.869 254.351H160.059V254.57C159.961 254.667 159.888 254.789 159.84 254.935C159.84 255.032 159.84 255.251 159.84 255.592V261.578H166.41V254.351H168.673V254.57C168.575 254.667 168.502 254.789 168.454 254.935C168.454 255.032 168.454 255.251 168.454 255.592V271.287H166.41V263.257H159.84V271.287H157.869V254.351ZM175.321 248V204.93H177.511V248H175.321ZM184.081 248V204.93H190.651V248H184.081ZM192.841 248V204.93H197.221V248H192.841ZM187.366 271.579C185.42 271.579 183.935 270.825 182.913 269.316C181.843 267.807 181.307 265.666 181.307 262.892C181.307 260.215 181.843 258.098 182.913 256.541C183.984 255.032 185.468 254.278 187.366 254.278C189.264 254.278 190.749 255.032 191.819 256.541C192.89 258.098 193.425 260.215 193.425 262.892C193.425 265.666 192.89 267.807 191.819 269.316C190.797 270.825 189.313 271.579 187.366 271.579ZM187.366 269.9C188.68 269.9 189.678 269.316 190.359 268.148C191.089 266.931 191.454 265.179 191.454 262.892C191.454 260.751 191.089 259.047 190.359 257.782C189.629 256.565 188.632 255.957 187.366 255.957C186.101 255.957 185.103 256.565 184.373 257.782C183.643 259.047 183.278 260.751 183.278 262.892C183.278 265.179 183.619 266.931 184.3 268.148C185.03 269.316 186.052 269.9 187.366 269.9ZM199.417 248V204.93H205.987V248H199.417ZM208.177 248V204.93H210.367V248H208.177ZM216.937 248V204.93H221.317V248H216.937ZM205.111 254.351H206.863L208.688 265.812L211.462 255.592H212.046L214.747 265.885L216.28 254.351H217.886L215.258 271.287H214.528L211.608 260.264L208.615 271.287H207.812L205.111 254.351ZM223.513 248V204.93H227.893V248H223.513ZM230.083 248V204.93H234.463V248H230.083ZM238.843 248V204.93H243.223V248H238.843ZM247.608 248V204.93H251.988V248H247.608ZM254.178 248V204.93H260.748V248H254.178ZM267.318 248V204.93H269.508V248H267.318ZM258.485 256.03H253.74V254.351H265.42V256.03H260.456V271.287H258.485V256.03ZM271.704 248V204.93H276.084V248H271.704ZM282.654 248V204.93H284.844V248H282.654ZM291.414 248V204.93H293.604V248H291.414ZM279.15 269.681H282.508V255.957H279.369V254.351H287.764V255.957H284.406V269.681H287.91V271.287H279.15V269.681ZM295.8 248V204.93H297.99V248H295.8ZM300.18 248V204.93H306.75V248H300.18ZM308.94 248V204.93H313.32V248H308.94ZM302.151 254.351H303.684L307.845 262.673L312.079 254.351H313.539V271.287H311.714V258.512L308.064 265.374H307.334L303.903 258.585V271.287H302.151V254.351ZM319.895 248V204.93H322.085V248H319.895ZM328.655 248V204.93H333.035V248H328.655ZM335.225 248V204.93H337.415V248H335.225ZM326.757 254.351H337.123V256.03H328.509V261.578H335.663V263.33H328.509V269.608H337.05V271.287H326.757V254.351Z" fill="white"/>
</g>
<path fill-rule="evenodd" clip-rule="evenodd" d="M137 70C153 54 166.5 46.5 187 46.5C207.5 46.5 221 54 237 70L256 38L187 0L118 38L137 70Z" fill="black"/>
<rect x="118.657" y="38" width="2" height="51" fill="black"/>
<rect x="119.657" y="86" width="8" height="8" transform="rotate(45 119.657 86)" fill="black"/>
</g>
<defs>
<filter id="filter0_d_844_72" x="0" y="0" width="379.746" height="388.279" filterUnits="userSpaceOnUse" color-interpolation-filters="sRGB">
<feFlood flood-opacity="0" result="BackgroundImageFix"/>
<feColorMatrix in="SourceAlpha" type="matrix" values="0 0 0 0 0 0 0 0 0 0 0 0 0 0 0 0 0 0 127 0" result="hardAlpha"/>
<feOffset dx="4" dy="4"/>
<feComposite in2="hardAlpha" operator="out"/>
<feColorMatrix type="matrix" values="0 0 0 0 0 0 0 0 0 0 0 0 0 0 0 0 0 0 0.2 0"/>
<feBlend mode="normal" in2="BackgroundImageFix" result="effect1_dropShadow_844_72"/>
<feBlend mode="normal" in="SourceGraphic" in2="effect1_dropShadow_844_72" result="shape"/>
</filter>
<filter id="filter1_b_844_72" x="24.747" y="198" width="326" height="85" filterUnits="userSpaceOnUse" color-interpolation-filters="sRGB">
<feFlood flood-opacity="0" result="BackgroundImageFix"/>
<feGaussianBlur in="BackgroundImageFix" stdDeviation="2"/>
<feComposite in2="SourceAlpha" operator="in" result="effect1_backgroundBlur_844_72"/>
<feBlend mode="normal" in="SourceGraphic" in2="effect1_backgroundBlur_844_72" result="shape"/>
</filter>
</defs>
</svg>
